<svg id="Layer_1" data-name="Layer 1" xmlns="http://www.w3.org/2000/svg" viewBox="0 0 129.61 33.64"><defs><style>.cls-1{font-size:22.88px;font-family:Amonosdisplay-Regular, Amonos display;}.cls-2{letter-spacing:-0.02em;}.cls-3{font-size:25.75px;font-family:ProximaNovaA-Bold, Proxima Nova Alt;font-weight:700;}.cls-4{font-size:9.24px;fill:#231f20;font-family:TrebuchetMS, Trebuchet MS;}</style></defs><path d="M17.8,25l.3-.36a1,1,0,0,1,1.33-.12l.73.61a1,1,0,0,1,.12,1.33l-.31.37L17.23,30a4.74,4.74,0,0,1-6.66.58l-3.63-3A4.77,4.77,0,0,1,5.26,24a4.7,4.7,0,0,1,1.11-3l5.47-6.52h0a4.74,4.74,0,0,1,6.66-.58l1.8,1.51.36.3A1,1,0,0,1,20.77,17l-.6.72a1,1,0,0,1-1.34.11l-.36-.3L16.68,16a1.92,1.92,0,0,0-1.22-.44,1.87,1.87,0,0,0-1.44.68L8.54,22.74A1.92,1.92,0,0,0,8.09,24a1.89,1.89,0,0,0,.68,1.45l3.62,3a1.88,1.88,0,0,0,2.67-.23Zm0,0" transform="translate(-5.26 -4.01)"/><path d="M18.58,10.79l-.31.36a1,1,0,0,1-1.33.12l-.73-.61a1,1,0,0,1-.11-1.34L16.4,9,19.14,5.7a4.72,4.72,0,0,1,6.66-.58l3.63,3a4.74,4.74,0,0,1,1.68,3.63,4.68,4.68,0,0,1-1.11,3l-5.47,6.52h0a4.73,4.73,0,0,1-6.66.57l-1.8-1.5-.36-.3a1,1,0,0,1-.11-1.34l.6-.72a1,1,0,0,1,1.34-.12l.36.31,1.79,1.5a1.91,1.91,0,0,0,2.67-.23L27.83,13a1.87,1.87,0,0,0-.23-2.66L24,7.29a1.92,1.92,0,0,0-1.22-.44,1.89,1.89,0,0,0-1.45.68Zm0,0" transform="translate(-5.26 -4.01)"/><text class="cls-1" transform="translate(29.44 21.22)">Pr<tspan class="cls-2" x="22.08" y="0">ov</tspan><tspan x="49.64" y="0">en</tspan></text><text class="cls-3" transform="translate(111.93 22.37)">X</text><text class="cls-4" transform="translate(88.97 31.21)">Consumer</text></svg>